<?xml version="1.0" encoding="utf-8"?>
<svg viewBox="0 0 256 221.083" xmlns="http://www.w3.org/2000/svg">
  <path d="M 83.587 153.024 C 77.99 153.024 73.822 155.772 73.822 162.386 C 73.822 167.369 76.569 170.829 83.285 170.829 C 88.978 170.829 92.845 167.474 92.845 162.179 C 92.845 156.179 89.385 153.024 83.587 153.024 Z M 72.397 199.725 C 71.072 201.35 69.752 203.078 69.752 205.115 C 69.752 209.182 74.938 210.406 82.062 210.406 C 87.962 210.406 96 209.992 96 204.506 C 96 201.245 92.133 201.044 87.247 200.738 L 72.397 199.725 Z M 102.51 153.331 C 104.338 155.671 106.274 158.928 106.274 163.607 C 106.274 174.899 97.423 181.511 84.607 181.511 C 81.348 181.511 78.398 181.105 76.569 180.597 L 73.21 185.987 L 83.179 186.597 C 100.781 187.719 111.154 188.229 111.154 201.754 C 111.154 213.456 100.882 220.065 83.179 220.065 C 64.766 220.065 57.746 215.385 57.746 207.349 C 57.746 202.771 59.781 200.334 63.342 196.971 C 59.984 195.552 58.866 193.01 58.866 190.261 C 58.866 188.021 59.984 185.988 61.818 184.053 C 63.648 182.123 65.682 180.188 68.124 177.95 C 63.14 175.508 59.374 170.218 59.374 162.688 C 59.374 150.991 67.107 142.957 82.669 142.957 C 87.045 142.957 89.691 143.359 92.031 143.974 L 111.871 143.974 L 111.871 152.618 L 102.51 153.331 Z M 129.769 134.844 C 123.969 134.844 120.612 131.484 120.612 125.683 C 120.612 119.89 123.968 116.733 129.769 116.733 C 135.669 116.733 139.027 119.89 139.027 125.683 C 139.027 131.484 135.67 134.844 129.769 134.844 Z M 116.643 195.981 L 116.643 187.948 L 121.833 187.238 C 123.258 187.033 123.46 186.729 123.46 185.2 L 123.46 155.29 C 123.46 154.174 123.156 153.458 122.135 153.156 L 116.643 151.221 L 117.761 142.983 L 138.822 142.983 L 138.822 185.2 C 138.822 186.83 138.92 187.033 140.451 187.239 L 145.639 187.949 L 145.639 195.981 L 116.643 195.981 Z M 185.87 192.037 C 181.494 194.172 175.085 196.105 169.284 196.105 C 157.178 196.105 152.602 191.227 152.602 179.725 L 152.602 153.074 C 152.602 152.464 152.602 152.057 151.785 152.057 L 144.665 152.057 L 144.665 143 C 153.62 141.98 157.178 137.504 158.297 126.415 L 167.963 126.415 L 167.963 140.865 C 167.963 141.575 167.963 141.882 168.778 141.882 L 183.121 141.882 L 183.121 152.055 L 167.963 152.055 L 167.963 176.368 C 167.963 182.37 169.389 184.708 174.88 184.708 C 177.732 184.708 180.679 183.998 183.12 183.082 L 185.87 192.036" style=""/>
  <path d="M 182.218 52.57 L 134.425 3.61 C 131.672 0.789 127.209 0.789 124.456 3.61 L 114.532 13.778 L 127.121 26.675 C 130.14 25.623 133.479 26.421 135.734 28.73 C 138.001 31.057 138.773 34.503 137.724 37.608 L 149.855 50.038 C 152.79 49.003 156.178 49.673 158.521 52.078 C 161.798 55.434 161.798 60.876 158.521 64.231 C 153.957 68.911 146.16 66.775 144.485 60.386 C 144.007 58.563 144.129 56.629 144.832 54.884 L 133.517 43.292 L 133.516 73.797 C 134.336 74.213 135.085 74.762 135.734 75.422 C 139.011 78.779 139.011 84.221 135.734 87.577 C 132.457 90.935 127.145 90.935 123.873 87.577 C 119.634 83.238 121.074 75.878 126.618 73.548 L 126.618 42.759 C 125.588 42.329 124.655 41.691 123.873 40.883 C 121.39 38.343 120.793 34.611 122.065 31.488 L 109.656 18.773 L 76.886 52.343 C 74.132 55.165 74.132 59.738 76.886 62.559 L 124.679 111.521 C 127.432 114.341 131.895 114.341 134.648 111.521 L 182.218 62.788 C 184.971 59.966 184.971 55.392 182.218 52.57" fill="#DE4C36" style=""/>
</svg>