<?xml version="1.0" encoding="utf-8"?>
<svg viewBox="4.222 9.038 53.524 45.898" xmlns="http://www.w3.org/2000/svg">
  <path d="M 38.237 17.623 L 36.322 19.541 C 39.514 22.732 39.514 27.935 36.322 31.126 C 33.127 34.322 27.928 34.322 24.732 31.126 C 21.542 27.936 21.542 22.732 24.732 19.541 L 29.842 14.431 L 30.482 13.701 L 30.482 9.869 L 22.725 17.623 C 18.439 21.869 18.439 28.797 22.725 33.044 C 26.972 37.331 33.901 37.331 38.147 33.044 C 42.526 28.755 42.526 21.822 38.237 17.623 L 38.237 17.623 Z M 38.237 17.623" fill="#ee4c2c" transform="matrix(0.9999999999999999, 0, 0, 0.9999999999999999, 0, 0)"/>
  <path d="M 35.865 15.614 C 35.836 16.738 34.601 17.409 33.642 16.821 C 33.22 16.563 32.957 16.108 32.944 15.614 C 32.944 14.489 34.162 13.787 35.135 14.349 C 35.587 14.61 35.865 15.092 35.865 15.614 Z M 35.865 15.614" fill="#ee4c2c" transform="matrix(0.9999999999999999, 0, 0, 0.9999999999999999, 0, 0)"/>
  <path d="M 8.238 44.996 L 6.738 44.996 L 6.738 48.855 L 5.617 48.855 L 5.617 37.902 L 8.355 37.902 C 11.257 37.902 12.628 39.312 12.628 41.355 C 12.628 43.761 10.925 44.965 8.23 45.003 L 8.238 44.996 Z M 8.312 38.941 L 6.699 38.941 L 6.699 43.961 L 8.277 43.917 C 10.351 43.878 11.472 43.047 11.472 41.347 C 11.472 39.812 10.394 38.941 8.32 38.941 L 8.312 38.941 Z M 17.695 48.811 L 17.031 50.554 C 16.285 52.504 15.531 53.085 14.417 53.085 C 13.797 53.085 13.339 52.921 12.839 52.71 L 13.171 51.718 C 13.546 51.925 13.961 52.05 14.417 52.05 C 15.039 52.05 15.496 51.718 16.077 50.175 L 16.617 48.765 L 13.507 40.839 L 14.667 40.839 L 17.199 47.479 L 19.687 40.839 L 20.808 40.839 L 17.695 48.811 Z M 24.539 38.984 L 24.539 48.898 L 23.418 48.898 L 23.418 38.984 L 19.562 38.984 L 19.562 37.902 L 28.394 37.902 L 28.394 38.941 L 24.54 38.941 L 24.539 38.984 Z M 31.55 49.104 C 29.308 49.104 27.648 47.444 27.648 44.871 C 27.648 42.301 29.351 40.597 31.625 40.597 C 33.863 40.597 35.484 42.257 35.484 44.831 C 35.484 47.401 33.781 49.105 31.543 49.105 L 31.55 49.104 Z M 31.59 41.604 C 29.89 41.604 28.77 42.972 28.77 44.839 C 28.77 46.789 29.933 48.117 31.632 48.117 C 33.332 48.117 34.452 46.749 34.452 44.882 C 34.452 42.929 33.289 41.605 31.589 41.605 L 31.59 41.604 Z M 38.27 48.898 L 37.19 48.898 L 37.19 40.848 L 38.27 40.64 L 38.27 42.343 C 38.808 41.304 39.597 40.64 40.636 40.64 C 41.128 40.644 41.613 40.773 42.046 41.015 L 41.753 42.05 C 41.425 41.843 40.968 41.718 40.511 41.718 C 39.679 41.718 38.894 42.343 38.23 43.792 L 38.23 48.898 L 38.27 48.898 Z M 46.316 49.105 C 43.91 49.105 42.375 47.363 42.375 44.871 C 42.375 42.343 44.035 40.597 46.315 40.597 C 47.312 40.597 48.145 40.847 48.847 41.304 L 48.558 42.3 C 47.893 41.859 47.113 41.628 46.316 41.636 C 44.574 41.636 43.496 42.921 43.496 44.831 C 43.496 46.781 44.66 48.066 46.359 48.066 C 47.154 48.061 47.931 47.831 48.601 47.402 L 48.808 48.398 C 48.101 48.855 47.23 49.101 46.316 49.101 L 46.316 49.105 Z M 55.566 48.898 L 55.566 43.71 C 55.566 42.3 54.988 41.687 53.866 41.687 C 52.953 41.687 52.043 42.14 51.378 42.847 L 51.378 48.945 L 50.296 48.945 L 50.296 37.081 L 51.378 36.874 L 51.378 41.933 C 52.207 41.105 53.285 40.648 54.156 40.648 C 55.734 40.648 56.687 41.644 56.687 43.386 L 56.687 48.902 L 55.566 48.898 Z M 55.566 48.898" style="" transform="matrix(0.9999999999999999, 0, 0, 0.9999999999999999, 0, 0)"/>
</svg>